# xmcd CD database file
#
# Track frame offsets:
#	150
#	16374
#	38445
#	62967
#	80265
#	98131
#	118075
#	136253
#	154695
#	173358
#	192204
#	207484
#
# Disc length: 2964 seconds
#
# Revision: 0
# Processed by: cddbd v1.5.2PL0 Copyright (c) Steve Scherf et al.
# Submitted via: CDex 2.14
#
DISCID=930b920c
DTITLE=Duo Gadjo and Their Hot Friends - Parlez moi d'amour
DYEAR=2018
DGENRE=Jazz
TTITLE0=La goualante du pauvre Jean
TTITLE1=La complainte de la butte
TTITLE2=Ne me quitte pas
TTITLE3=La mer 
TTITLE4=Petite fleur
TTITLE5=Menilmontant
TTITLE6=Le temps du tango
TTITLE7=La ballade irlandaise
TTITLE8=Mon manege a moi
TTITLE9=Ou es-tu mon amour 
TTITLE10=Non, je ne regrette rien
TTITLE11=Parlez moi d'amour
EXTD=YEAR: 2018
EXTT0=
EXTT1=
EXTT2=
EXTT3=
EXTT4=
EXTT5=
EXTT6=
EXTT7=
EXTT8=
EXTT9=
EXTT10=
EXTT11=
PLAYORDER=
